/* XPM */
static char *_cf89a1da46b420ec59a6f4199ef8981CoioKqK0aTYyxwoc[] = {
/* columns rows colors chars-per-pixel */
"64 64 111 2 ",
"   c None",
".  c #6D0001",
"X  c #760001",
"o  c #7B0101",
"O  c #830102",
"+  c #8B0203",
"@  c #930102",
"#  c #9B0102",
"$  c #911212",
"%  c #A40102",
"&  c #AC0102",
"*  c #B50101",
"=  c #BC0001",
"-  c #BF0D0E",
";  c #AD1213",
":  c #B41413",
">  c #B51B1B",
",  c #952827",
"<  c #B62A29",
"1  c #B33D3D",
"2  c #B93E3E",
"3  c #C40001",
"4  c #CB0102",
"5  c #D30102",
"6  c #DC0101",
"7  c #CB1413",
"8  c #E30001",
"9  c #ED0101",
"0  c #E40D0D",
"q  c #F30101",
"w  c #FE0000",
"e  c #F50808",
"r  c #FD0C0C",
"t  c #E61515",
"y  c #EB1E1C",
"u  c #FF1313",
"i  c #F21818",
"p  c #FD1B1A",
"a  c #C22F2E",
"s  c #CC2E2D",
"d  c #D42827",
"f  c #D12928",
"g  c #D63333",
"h  c #E32C29",
"j  c #FC2524",
"k  c #FD2827",
"l  c #FF2B2B",
"z  c #E63634",
"x  c #EB3D3C",
"c  c #F63534",
"v  c #FE3534",
"b  c #FD3837",
"n  c #FE3C3A",
"m  c #B5413F",
"M  c #E4423F",
"N  c #FF413F",
"B  c #B74443",
"V  c #BB4443",
"C  c #C04B47",
"Z  c #C44B49",
"A  c #DF4846",
"S  c #DD4A48",
"D  c #E14542",
"F  c #ED4342",
"G  c #E44846",
"H  c #F24241",
"J  c #FE4443",
"K  c #FC4947",
"L  c #FE4D4B",
"P  c #FF504F",
"I  c #FD5352",
"U  c #FE5856",
"Y  c #FE5C5A",
"T  c #EB615F",
"R  c #FE615F",
"E  c #DA6C69",
"W  c #FE6462",
"Q  c #FE6966",
"!  c #F26C6A",
"~  c #FE6C69",
"^  c #F3726F",
"/  c #FF716E",
"(  c #FE7573",
")  c #FF7A76",
"_  c #F17E7B",
"`  c #FE7D7A",
"'  c #F1817E",
"]  c #FF817D",
"[  c #F78581",
"{  c #FF8582",
"}  c #FE8986",
"|  c #FE8D8A",
" . c #FF928F",
".. c #FF9591",
"X. c #FF9995",
"o. c #FE9B99",
"O. c #FEA19E",
"+. c #FEA4A1",
"@. c #FFA9A4",
"#. c #FDADAB",
"$. c #FCB0AC",
"%. c #FDB5B3",
"&. c #FCB8B5",
"*. c #FDBDBB",
"=. c #FCC5C3",
"-. c #FECCCB",
";. c #FED1CF",
":. c #FCD4D3",
">. c #FDDAD9",
",. c #FCE0DF",
"<. c #FDFFFF",
/* pixels */
"                                                                                                                                ",
"                                                                                                                                ",
"                                                    +                                                                           ",
"                                                    # o                                                                         ",
"                                                        O                                                                       ",
"                                                        # o                                                                     ",
"                                                            O                                                                   ",
"                                                            @ o                                                                 ",
"                                            O o o o o X o o o X o o o o o o o                                                   ",
"                                            + o o o X X X o o X o X X X o o O X                                                 ",
"                                    O X X + & % % * 3 3 3 & . + 3 3 3 = % % & # X X o                                           ",
"                                    O o . @ 4 3 = 6 w w w 6 . # w w w w 3 3 4 = X o o .                                         ",
"                                X @ % & 3 4 8 8 8 9 w w w 6 . @ 6 9 w q 8 8 8 6 = 7 Z V o                                       ",
"                                o # 4 8 w w w w w w w w w 5 . + 3 5 w w w w w w w p o._ o X                                     ",
"                            o @ % = 8 9 w w w w w q 6 y L g . o # : P c 6 8 w q 6 0 J x V m O                                   ",
"                            O # 4 6 w w w w w w w 8 * s @.E X X . , +.^ * 4 w q = 3 w u O.' o .                                 ",
"                          @ % = 8 9 w w w w w w w i S A G a X X X $ G M A z w q 3 4 6 0 J H V 1 o                               ",
"                      o O % 3 6 w w w w w w w w w v @.T = % . X . O = 7 O.) w q 3 3 = 4 w u o.[ + o                             ",
"                        o % 8 9 w p K k w w w w w p K H D s # # @ ; D M K v w q 3 3 3 4 w r K x o X                             ",
"                        X * w w e b #.Y w w w w w w w k @.! 3 3 3 d +./ w w w q 3 3 3 4 w w w 8 X .                             ",
"                      @ # 3 w p J J I l w w w q 6 9 w p L c 6 6 6 t L v w w 8 6 3 3 3 3 6 9 w e V 1                             ",
"                  o O % 4 8 w v ..J w w w w w 8 * 5 w w w w w w w w w w w q = = 3 3 3 3 = 4 w u X.[ + o                         ",
"                    o % 6 y n ( =.o.( U n k w q 5 6 8 8 8 8 8 9 w q 8 8 8 6 3 3 3 3 3 3 3 4 w r K F O X                         ",
"                    X = w n ' &.<.<.<.>.} U w w w 9 * = = = * 4 w 9 = = = = 3 3 3 3 3 3 3 4 w w w 9 o X                         ",
"                    X * w I &.:.<.<.<.-.] P w w w q 6 6 6 6 6 8 w q 6 6 6 5 3 3 3 3 3 3 3 4 8 9 w q O X                         ",
"                    o * w ) <.<.<.<.<.=.] L w q w w w w w w w w w w w w w w 3 3 3 3 4 3 3 3 = 3 w 9 o X                         ",
"                    X > b ) -.>.<.<.<.-.` W b j w w w w w w w w w w w q 8 8 3 3 3 3 3 3 3 3 3 4 w q O X                         ",
"                    o B ..] ~ %.<.<.<.;.( { ..U w w w w w w w w w w w q = = 3 3 3 3 3 3 3 3 3 4 w 9 o X                         ",
"                    X 2 } ] ) O.-.-.-.#.` ` } W v j w w w w w w w w w q 3 3 3 3 3 3 3 3 3 3 3 4 w 9 o X                         ",
"                    X B ..{ ] ) ~ / ) ) ] ] ` { ..Y w w w w w w w w w q 3 3 3 3 3 3 3 3 3 3 3 4 w q O X                         ",
"                    X < U Q ] ..#.o.` ` ] ] ] ] } U w w w w w w w e 8 8 3 3 3 3 3 3 3 3 3 3 3 4 w 9 o o                         ",
"                    o * w b ] *.<.:.( ` ) ) ] ` } U w w w w w w w 9 = 3 3 3 3 3 3 3 3 3 3 3 = 4 w q o X                         ",
"                    o * w b { +.:.#.(  .#.o.` ] } U w w w w w w w q 5 5 3 3 3 3 3 3 3 3 3 4 5 6 w q o o                         ",
"                  o o = w J ..] ( ` ( &.<.>.( ` } U w w w w w w w w w q 3 3 3 3 3 3 3 3 3 4 w w w e O X                         ",
"                    o & 5 h W ~ ] ] ) o.:.&.) ] } U w w w w w w w w w q 3 3 3 3 3 3 3 3 3 4 w e 5 4 O o                         ",
"                        . & w b ..} } { ( ` } } ..Y w w w w w w w w w q 3 3 3 3 3 3 3 3 = 4 w 9 o .                             ",
"                        X * w k R Y U ~ { ( Y Y R n w w w w w w w w 9 8 3 3 3 3 3 3 3 4 5 6 w 9 o X                             ",
"                      o O = w w w w w v o.I w w w w w w w w w w w 9 = = 3 3 3 3 3 3 = 4 w w w q O o                             ",
"                        X & 5 9 w w w k ~ n w w w w w w w w w w w 9 3 3 3 3 3 3 3 3 5 6 w e 6 5 O X                             ",
"                            X & w w w w w q w w w w w w w w w w w q 3 4 3 3 3 3 3 4 w w w 8 X .                                 ",
"                            o & 9 q w w w w w w w w w w w w w q 9 8 3 3 3 3 3 3 = 5 w w w 9 o X                                 ",
"                            O # 3 8 w w w w w w w w w w w w w 9 = = 3 3 = 3 3 3 = 4 w w w q O X                                 ",
"                            o # * 4 q 9 q 9 9 q w w w w w w w q 5 5 5 5 5 5 5 5 4 6 w w 6 5 o o                                 ",
"                                O # 4 3 3 3 3 5 w w w w w w w w w w w w w w w w w w w 9 o X                                     ",
"                                o @ * * * = 3 5 q q q q q q w w w w w w w w q 9 8 6 8 5 o o                                     ",
"                                    O o X @ 4 3 3 4 3 3 3 5 w w w w w w w e 4 * o o o X                                         ",
"                                    O o X @ = * * * * * * 3 6 8 6 6 8 8 8 5 = & X o o o                                         ",
"                                            + o o o o o o o o o o X X o o o O X                                                 ",
"                                            o o o o o X o o X o X o X o o o o o                                                 ",
"                                                                                                                                ",
"                                                                                                                                ",
"                                                                                                                                ",
"                                                                                                                                ",
"                                                                                                                                ",
"                                                                                                                                ",
"                                                                                                                                ",
"                                                                                                                                ",
"                                                                                                                                ",
"                                                                                                                                ",
"                                                                                                                                ",
"                                                                                                                                ",
"                                                                                                                                ",
"                                                                                                                                ",
"                                                                                                                                "
};
