/* XPM */
static char *ec6335ec3bd34410ed326fb1c2082098gTABHVH8lRfB5jnN[] = {
/* columns rows colors chars-per-pixel */
"64 64 249 2 ",
"   c #FDF200",
".  c #FDF800",
"X  c #FDF700",
"o  c #FDF600",
"O  c #FDF200",
"+  c #FDF300",
"@  c None",
"#  c #FDF200",
"$  c #FDF400",
"%  c #F6F90F",
"&  c #C3E33A",
"*  c #C6E438",
"=  c #C5E439",
"-  c #CAE534",
";  c #FFF800",
":  c #F6F30D",
">  c #C4E33A",
",  c #CEE631",
"<  c #FFF703",
"1  c #FFFE01",
"2  c #C3E33B",
"3  c #00BDFF",
"4  c #09C7FF",
"5  c #0AC6FF",
"6  c #0BC6FF",
"7  c #06C4FF",
"8  c #1CC7F2",
"9  c #FFF403",
"0  c #C3DE34",
"q  c #03C4FF",
"w  c #2AC0D4",
"e  c #FFEF00",
"r  c #F3F10D",
"t  c #1AC9F2",
"y  c #04C5FF",
"u  c #FFF401",
"i  c #13C1FF",
"p  c #21CAFF",
"a  c #22CAFF",
"s  c #22C9FF",
"d  c #1DCAFF",
"f  c #12CEFF",
"g  c #27D1F1",
"h  c #C6DF31",
"j  c #20CBFF",
"k  c #0FD0FF",
"l  c #34C7D1",
"z  c #FFEE00",
"x  c #F5F10D",
"c  c #30CCF1",
"v  c #1CC8FF",
"b  c #FFF400",
"n  c #C7E438",
"m  c #36ABFF",
"M  c #4AB0FF",
"N  c #49B0FF",
"B  c #4DAFFF",
"V  c #33B0EF",
"C  c #0FCBFF",
"Z  c #28D1EF",
"A  c #FEF403",
"S  c #C6DE31",
"D  c #4BAFFF",
"F  c #40B6FF",
"G  c #0FCFFF",
"H  c #35C6CF",
"J  c #F7EF0D",
"K  c #55B4EE",
"L  c #44AEFF",
"P  c #35ACFF",
"I  c #49B1FF",
"U  c #48B1FF",
"Y  c #4CB0FF",
"T  c #32B1EF",
"R  c #3FB7FF",
"E  c #54B5EE",
"W  c #43AFFF",
"Q  c #C4E33B",
"!  c #2BA8FF",
"~  c #40AEFF",
"^  c #3FAEFF",
"/  c #43ADFF",
"(  c #28AEFB",
")  c #03C9FF",
"_  c #1DCFFB",
"`  c #C3DD33",
"'  c #41ADFF",
"]  c #35B4FF",
"[  c #03CDFF",
"{  c #2BC4DA",
"}  c #F7EF0E",
"|  c #4BB2FA",
" . c #39ACFF",
".. c #D2E82D",
"X. c #5DBACD",
"o. c #6DBECD",
"O. c #6CBECD",
"+. c #6FBDCD",
"@. c #5ABEC0",
"#. c #3ED3CD",
"$. c #52D7C0",
"%. c #FEF402",
"&. c #D1E227",
"*. c #6DBDCD",
"=. c #65C3CD",
"-. c #3ED6CD",
";. c #5DCFA6",
":. c #FFF000",
">. c #F9F00A",
",. c #75C1BF",
"<. c #68BCCD",
"1. c #FFF500",
"2. c #FFFA00",
"3. c #FFF900",
"4. c #FFF700",
"5. c #E7EF18",
"6. c #96D460",
"7. c #9BD75D",
"8. c #9BD65D",
"9. c #9CD65D",
"0. c #9AD65F",
"q. c #97D65F",
"w. c #A8D84F",
"e. c #FFF200",
"r. c #FBF103",
"t. c #A2D857",
"y. c #99D65E",
"u. c #98D55F",
"i. c #FFF701",
"p. c #C1E23C",
"a. c #00BEFF",
"s. c #04C9FF",
"d. c #05C8FF",
"f. c #00C7FF",
"g. c #24C0DD",
"h. c #F3F10E",
"j. c #15CAFD",
"k. c #0FC4FF",
"l. c #1BCEFF",
"z. c #1CCDFF",
"x. c #10CFFF",
"c. c #F4F10D",
"v. c #2BCFEF",
"b. c #16CCFF",
"n. c #32AEFF",
"m. c #46B3FF",
"M. c #45B3FF",
"N. c #47B2FF",
"B. c #3DB9FF",
"V. c #51B7EE",
"C. c #40B1FF",
"Z. c #C6E439",
"A. c #34ABFF",
"S. c #4AAFFF",
"D. c #3EB7FF",
"F. c #0BD1FF",
"G. c #32C6D4",
"H. c #54B5F4",
"J. c #43AEFF",
"K. c #C8E437",
"L. c #2DAAF0",
"P. c #3EAFEE",
"I. c #3FAEEE",
"U. c #37B3EE",
"Y. c #12C4F0",
"T. c #38C1C4",
"R. c #F6EF0C",
"E. c #4AB3DE",
"W. c #39ADEF",
"Q. c #FFF501",
"!. c #FBF604",
"~. c #E9E90D",
"^. c #EAE90B",
"/. c #E8EA0D",
"(. c #DEE818",
"). c #DFE817",
"_. c #E9E90C",
"`. c #EBE70C",
"'. c #F0EA08",
"]. c #FFF300",
"[. c #ECEA09",
"{. c #ECE70C",
"}. c #EFEA0B",
"|. c #FFF801",
" X c #F6F509",
".X c #D9EC2A",
"XX c #DBEE2A",
"oX c #D9EE2A",
"OX c #E0EC21",
"+X c #DEEE27",
"@X c #DAEE2A",
"#X c #DAED2B",
"$X c #D2EB32",
"%X c #DFEC22",
"&X c #05C7FF",
"*X c #11D1FF",
"=X c #12D0FF",
"-X c #13D0FF",
";X c #0BCDFF",
":X c #31C5D4",
">X c #22D2F5",
",X c #0CCFFF",
"<X c #0EB6F5",
"1X c #1BBEF2",
"2X c #1CBDF2",
"3X c #1CBDF1",
"4X c #1BC1F5",
"5X c #0ECEFF",
"6X c #33C6D1",
"7X c #F4F00C",
"8X c #2AC1E2",
"9X c #16BCF3",
"0X c #34A9FB",
"qX c #48ADFA",
"wX c #47ADFA",
"eX c #49ACFA",
"rX c #3EB4FB",
"tX c #53B2E9",
"yX c #42ABFB",
"uX c #36ACFF",
"iX c #4AB1FF",
"pX c #4BB0FF",
"aX c #40B7FF",
"sX c #55B5EF",
"dX c #44AFFF",
"fX c #C5E33A",
"gX c #2FAAFF",
"hX c #45AEFF",
"jX c #3AB6FF",
"kX c #06D0FF",
"lX c #2DC5D8",
"zX c #50B3F9",
"xX c #3EADFF",
"cX c #CEE630",
"vX c #41B2D2",
"bX c #50B6CF",
"nX c #51B5CF",
"mX c #4BB9CF",
"MX c #2DC6D1",
"NX c #4EC5AB",
"BX c #FFF100",
"VX c #F7EF0A",
"CX c #5BB9C1",
"ZX c #4BB4D0",
"AX c #FEF600",
"SX c #FDF600",
"DX c #FEF500",
"FX c yellow",
"GX c white",
/* pixels */
"  . X o o o o o o o o o o o X o O + X o o o o o o o o o o o o o o o o o o o o o o o o o X o O O o X o o o o o o o o o o X o X   ",
"@ % & * * * * * * * * * * * = - ; : & * * * * * * * * * * * * * * * * * * * * * * * * * > , ; < - = * * * * * * * * * * > , 1 # ",
"o 2 3 4 5 5 5 5 5 5 5 5 5 6 7 8 9 0 3 4 5 5 5 5 5 5 5 5 5 5 5 5 5 5 5 5 5 5 5 5 5 5 5 5 q w e r t y 5 5 5 5 5 5 5 5 5 5 q w u + ",
"o * i p a a a a a a a a s d f g 9 h i p a a a a a a a a a a a a a a a a a a a a a a s j k l z x c v a a a a a a a a s j k l b + ",
"X n m M N N N N N N N N B V C Z A S m M N N N N N N N N N N N N N N N N N N N N N N D F G H e J K L N N N N N N N N D F G H b + ",
"X n P I U U U U U U U U Y T C Z A S P I U U U U U U U U U U U U U U U U U U U U U U M R G H e J E W U U U U U U U U M R G H b + ",
"X n P I U U U U U U U U Y T C Z A S P I U U U U U U U U U U U U U U U U U U U U U U M R G H e J E W U U U U U U U U M R G H b + ",
"X n P I U U U U U U U U Y T C Z A S P I U U U U U U U U U U U U U U U U U U U U U U M R G H e J E W U U U U U U U U M R G H b + ",
"X n P I U U U U U U U U Y T C Z A S P I U U U U U U U U U U U U U U U U U U U U U U M R G H e J E W U U U U U U U U M R G H b + ",
"X n P I U U U U U U U U Y T C Z A S P I U U U U U U U U U U U U U U U U U U U U U U M R G H e J E W U U U U U U U U M R G H b + ",
"X n P I U U U U U U U U Y T C Z A S P I U U U U U U U U U U U U U U U U U U U U U U M R G H e J E W U U U U U U U U M R G H b + ",
"X n P I U U U U U U U U Y T C Z A S P I U U U U U U U U U U U U U U U U U U U U U U M R G H e J E W U U U U U U U U M R G H b + ",
"X n P I U U U U U U U U Y T C Z A S P I U U U U U U U U U U U U U U U U U U U U U U M R G H e J E W U U U U U U U U M R G H b + ",
"X n P I U U U U U U U U Y T C Z A S P I U U U U U U U U U U U U U U U U U U U U U U M R G H e J E W U U U U U U U U M R G H b + ",
"X n P I U U U U U U U U Y T C Z A S P I U U U U U U U U U U U U U U U U U U U U U U M R G H e J E W U U U U U U U U M R G H b + ",
"X n P I U U U U U U U U Y T C Z A S P I U U U U U U U U U U U U U U U U U U U U U U M R G H e J E W U U U U U U U U M R G H b + ",
"X n P I U U U U U U U U Y T C Z A S P I U U U U U U U U U U U U U U U U U U U U U U M R G H e J E W U U U U U U U U M R G H b + ",
"X n P I U U U U U U U U Y T C Z A S P I U U U U U U U U U U U U U U U U U U U U U U M R G H e J E W U U U U U U U U M R G H b + ",
"X Q ! ~ ^ ^ ^ ^ ^ ^ ^ ^ / ( ) _ A ` ! ~ ^ ^ ^ ^ ^ ^ ^ ^ ^ ^ ^ ^ ^ ^ ^ ^ ^ ^ ^ ^ ^ ^ ' ] [ { e } |  .^ ^ ^ ^ ^ ^ ^ ^ ' ] [ { b + ",
"o ..X.o.O.O.O.O.O.O.O.O.+.@.#.$.%.&.X.o.O.O.O.O.O.O.O.O.O.O.O.O.O.O.O.O.O.O.O.O.O.O.*.=.-.;.:.>.,.<.O.O.O.O.O.O.O.O.*.=.-.;.1.+ ",
"O 2.3.; ; ; ; ; ; ; ; ; ; ; ; 4.4.4.; ; ; ; ; ; ; ; ; ; ; ; b b ; ; ; ; ; ; ; ; ; ; ; ; 4.; 4.4.; ; ; ; ; ; ; ; ; ; ; ; ; ; ; O ",
"$ 5.6.7.8.8.8.8.8.8.8.8.8.8.9.9.0.0.8.8.8.8.8.8.8.8.8.8.q.w.e.r.t.y.8.8.8.8.8.8.8.8.8.8.9.8.0.0.8.8.8.8.8.8.8.8.8.8.8.8.u.w.i.O ",
"o p.a.s.d.d.d.d.d.d.d.d.d.d.d.d.d.d.d.d.d.d.d.d.d.d.d.d.f.g.z h.j.f.d.d.d.d.d.d.d.d.d.d.d.d.d.d.d.d.d.d.d.d.d.d.d.d.d.d.f.g.b + ",
"o * k.l.z.z.z.z.z.z.z.z.z.z.z.z.z.z.z.z.z.z.z.z.z.z.z.z.x.H z c.v.b.z.z.z.z.z.z.z.z.z.z.z.z.z.z.z.z.z.z.z.z.z.z.z.z.z.z.x.H b + ",
"X n n.m.M.M.M.M.M.M.M.M.M.M.M.M.M.M.M.M.M.M.M.M.M.M.N.B.G H e J V.C.M.M.M.M.M.M.M.M.M.M.M.M.M.M.M.M.M.M.M.M.M.M.M.M.N.B.G H b + ",
"X n m M N N N N N N N N N N N N N N N N N N N N N N D F G H e J K L N N N N N N N N N N N N N N N N N N N N N N N N D F G H b + ",
"X n P I U U U U U U U U U U U U U U U U U U U U U U M R G H e J E W U U U U U U U U U U U U U U U U U U U U U U U U M R G H b + ",
"X n P I U U U U U U U U U U U U U U U U U U U U U U M R G H e J E W U U U U U U U U U U U U U U U U U U U U U U U U M R G H b + ",
"X n P I U U U U U U U U U U U U U U U U U U U U U U M R G H e J E W U U U U U U U U U U U U U U U U U U U U U U U U M R G H b + ",
"X n P I U U U U U U U U U U U U U U U U U U U U U U M R G H e J E W U U U U U U U U U U U U U U U U U U U U U U U U M R G H b + ",
"X n P I U U U U U U U U U U U U U U U U U U U U U U M R G H e J E W U U U U U U U U U U U U U U U U U U U U U U U U M R G H b + ",
"X n P I U U U U U U U U U U U U U U U U U U U U U U M R G H e J E W U U U U U U U U U U U U U U U U U U U U U U U U M R G H b + ",
"X n P I U U U U U U U U U U U U U U U U U U U U U U M R G H e J E W U U U U U U U U U U U U U U U U U U U U U U U U M R G H b + ",
"X n P I U U U U U U U U U U U U U U U U U U U U U U M R G H e J E W U U U U U U U U U U U U U U U U U U U U U U U U M R G H b + ",
"X n P I U U U U U U U U U U U U U U U U U U U U U U M R G H e J E W U U U U U U U U U U U U U U U U U U U U U U U U M R G H b + ",
"X n P I U U U U U U U U U U U U U U U U U U U U U U M R G H e J E W U U U U U U U U U U U U U U U U U U U U U U U U M R G H b + ",
"X n P I U U U U U U U U U U U U U U U U U U U U U U M R G H e J E W U U U U U U U U U U U U U U U U U U U U U U U U M R G H b + ",
"X n P I U U U U U U U U U U U U U U U U U U U U U U M R G H e J E W U U U U U U U U U U U U U U U U U U U U U U U U M R G H b + ",
"X n P I U U U U U U U U U U U U U U U U U U U U U U M R G H e J E W U U U U U U U U U U U U U U U U U U U U U U U U M R G H b + ",
"X n P I U U U U U U U U U U U U U U U U U U U U U U M R G H e J E W U U U U U U U U U U U U U U U U U U U U U U U U M R G H b + ",
"X Z.A.I U U U U U U U U U U U U U U U U U U U U U U S.D.F.G.e J H.J.U U U U U U U U U U U U U U U U U U U U U U U U S.D.F.G.b + ",
"X K.L.P.P.P.P.P.P.P.P.P.P.P.P.P.P.P.P.P.P.P.P.P.P.P.I.U.Y.T.:.R.E.W.P.P.P.P.P.P.P.P.P.P.P.P.P.P.P.P.P.P.P.P.P.P.P.P.I.U.Y.T.Q.+ ",
"O !.~.^.^.^.^.^.^.^.^.^.^./.(.)._.^.^.^.^.^.^.^.^.^.^.^.`.'.b ].[._.^.^.^.^.^.^.^.^.^.^.^./.(.)._.^.^.^.^.^.^.^.^.^.^.^.{.}.|.O ",
"+  X.XXXXXXXXXXXXXXXXXXXoXOXb 1.+X@XXXXXXXXXXXXXXXXXXXXXXX#X$X$X@XXXXXXXXXXXXXXXXXXXXXXXoXOXb 1.+X@XXXXXXXXXXXXXXXXXXXXX@X%X4.O ",
"o = &X*X=X=X=X=X=X=X=X-X;X:Xz c.>X,X=X=X=X=X=X=X=X=X=X=X=X=X=X=X=X=X=X=X=X=X=X=X=X=X=X-X;X:Xz c.>X,X=X=X=X=X=X=X=X=X=X-X;X:Xb + ",
"o * <X1X2X2X2X2X2X2X3X4X5X6Xz 7X8X9X2X2X2X2X2X2X2X2X2X2X2X2X2X2X2X2X2X2X2X2X2X2X2X2X3X4X5X6Xz 7X8X9X2X2X2X2X2X2X2X2X3X4X5X6Xb + ",
"X n 0XqXwXwXwXwXwXwXeXrXG H e J tXyXwXwXwXwXwXwXwXwXwXwXwXwXwXwXwXwXwXwXwXwXwXwXwXwXeXrXG H e J tXyXwXwXwXwXwXwXwXwXeXrXG H b + ",
"X n uXiXI I I I I I pXaXG H e J sXdXI I I I I I I I I I I I I I I I I I I I I I I I pXaXG H e J sXdXI I I I I I I I pXaXG H b + ",
"X n P I U U U U U U M R G H e J E W U U U U U U U U U U U U U U U U U U U U U U U U M R G H e J E W U U U U U U U U M R G H b + ",
"X n P I U U U U U U M R G H e J E W U U U U U U U U U U U U U U U U U U U U U U U U M R G H e J E W U U U U U U U U M R G H b + ",
"X n P I U U U U U U M R G H e J E W U U U U U U U U U U U U U U U U U U U U U U U U M R G H e J E W U U U U U U U U M R G H b + ",
"X n P I U U U U U U M R G H e J E W U U U U U U U U U U U U U U U U U U U U U U U U M R G H e J E W U U U U U U U U M R G H b + ",
"X n P I U U U U U U M R G H e J E W U U U U U U U U U U U U U U U U U U U U U U U U M R G H e J E W U U U U U U U U M R G H b + ",
"X n P I U U U U U U M R G H e J E W U U U U U U U U U U U U U U U U U U U U U U U U M R G H e J E W U U U U U U U U M R G H b + ",
"X n P I U U U U U U M R G H e J E W U U U U U U U U U U U U U U U U U U U U U U U U M R G H e J E W U U U U U U U U M R G H b + ",
"X n P I U U U U U U M R G H e J E W U U U U U U U U U U U U U U U U U U U U U U U U M R G H e J E W U U U U U U U U M R G H b + ",
"X n P I U U U U U U M R G H e J E W U U U U U U U U U U U U U U U U U U U U U U U U M R G H e J E W U U U U U U U U M R G H b + ",
"X n P I U U U U U U M R G H e J E W U U U U U U U U U U U U U U U U U U U U U U U U M R G H e J E W U U U U U U U U M R G H b + ",
"X n P I U U U U U U M R G H e J E W U U U U U U U U U U U U U U U U U U U U U U U U M R G H e J E W U U U U U U U U M R G H b + ",
"X n P I U U U U U U M R G H e J E W U U U U U U U U U U U U U U U U U U U U U U U U M R G H e J E W U U U U U U U U M R G H b + ",
"X fXgXdXW W W W W W hXjXkXlXe } zXxXW W W W W W W W W W W W W W W W W W W W W W W W hXjXkXlXe } zXxXW W W W W W W W hXjXkXlXb + ",
"o cXvXbXbXbXbXbXbXbXnXmXMXNXBXVXCXZXbXbXbXbXbXbXbXbXbXbXbXbXbXbXbXbXbXbXbXbXbXbXbXbXnXmXMXNXBXVXCXZXbXbXbXbXbXbXbXbXnXmXMXNXQ.+ ",
"# 1 AXSXSXSXSXSXSXSXSXDX].Q.3.; AXSXSXSXSXSXSXSXSXSXSXSXSXSXSXSXSXSXSXSXSXSXSXSXSXSXSXDX].Q.3.; AXSXSXSXSXSXSXSXSXSXSXDX].Q.FX# ",
"  X + + + + + + + + + + + + O O + + + + + + + + + + + + + + + + + + + + + + + + + + + + + + O O + + + + + + + + + + + + + + X   "
};
