/* XPM */
static char *_a5146609f8b471a866e156386bbb182UMaMV7U9xntT1L1Q[] = {
/* columns rows colors chars-per-pixel */
"64 64 34 1 ",
"  c #67C5FF",
". c #68C4FB",
"X c #6CC5FB",
"o c #68C3FD",
"O c #69C7FC",
"+ c #6EC7FF",
"@ c #6BC8FC",
"# c #6ECAFC",
"$ c #6DCCFF",
"% c #72CBFC",
"& c #70C8FF",
"* c #74C9FF",
"= c #73CEFF",
"- c #76CFFF",
"; c #7ACCFF",
": c #7ECDFF",
"> c #6FD2FF",
", c #72D2FF",
"< c #81CEFF",
"1 c #83CFFF",
"2 c #83D0FF",
"3 c #87D0FF",
"4 c #8BD3FF",
"5 c #8CD2FF",
"6 c #8ED4FF",
"7 c #8ED9FF",
"8 c #92D5FF",
"9 c #97D7FF",
"0 c #98D7FF",
"q c #94D8FC",
"w c #97DCFC",
"e c #98D8FF",
"r c #9ADDFF",
"t c #9DE3FF",
/* pixels */
"@#XX...XX.XX..XXXXXX++++++XXX+++++++XXXXX++++XXXXXXXXX++XXXXXX#+",
"O>$#=-$$$-qr7=$$$$$$$$$$$=$$$$====$$$$$$$=$$$$$$=$$$$$==$$$$=$,O",
"%-+<994%O80905+OOOOOOOOOOOOOOO+O++OOOOOOOOOOOO+++OOOOO+OOO+++O#O",
"qr8999e6:999998<OOOOOOOOOOOOOOOO+++OOOOOOOOOOOO++OOOOOOOOOO+OO#O",
"qr9999998889999e<OOOOO+OOOOOOOOOOOOO+OOOOOOOOO++OOOOOOOO++++O+#O",
"qr999999988999998+OOOOO+OOOOOOOOOOOOOOOOOOO+OO+OOOOOOOOOOO+OO+#O",
"qr888888888999894OOOO O+OOOO++O+OO++OOOOO+++OOOOOOOO++O+OOOOOO#O",
"qr8888888889998964*O::+OOOOO++++OOOOO+OO++++OOOOOOOO++++OOOOO+#o",
"qr8999999988888899850e6#O+OOOOOOO<54%OOOOOOO++++++++OOOOOOO+OO#o",
"qr99999999888888889999e3OOO%+OOO3e9e8%OO+OOOO+++++O+OOOOOO++OO#o",
"qr9999888888999988999995 +598; %998804OO++OOOOOOOOOOOO++OO++OO#O",
"qr9988888888999988999998;409993:9998993OO+OOOOOOOOOOO+++OO++O+#O",
"qr9999889988889989998889998899998888990:OOOOOOOOOOOOOO++OO++++#O",
"qr9999889999889989998888998899998888990<OOOOOOOOOO++OOOOOO++O+#O",
"qr8999989999888999999899998888999899999*OOOOOO++O+++OOOOOOOOOO#o",
"qr889988999988899999999999888899999999; OOOOOO++OO++OOOOOOOOOO#o",
"qr889999999988888888888899888888888889<OOOOOOOO+OOOO+++O++OOO+#O",
"qr8899999999888888888888999988889988898+OOOOOO++OOOO+++O+OOOO+#O",
"qr8899998899888899888899999999889999899#OOOOOOOOOOOO++OO++OOOO#O",
"qr8899888899999999888899999999999999899<OOOOOOOO++OOOOOO++OOOO#o",
"qr99888888889999998888999999999988999995O+OOOOOO++OOOOOO+OOOOO#o",
"qr998888888899999988889999999999889999e3O+OOOOO+++OOOOOO+OOOOO#o",
"qr9988999999998899988999998888888888994+OOOOO+++OOOO+O+OOOOOOO#O",
"qr999999999999889998899999888888988999; ++OOO+++OOOO+++OOOOO++#O",
"qr999999999999888999888899999999999889:OOOO+OOOOOOOOOOOOOO+++O#O",
"qr9999988899998889998888888899999998893OOOO+OOOO+OOOOOOOOO++OO#O",
"qr898898888899888899998888888899999989:OOO++OOOO+++O++OOOOOOOO#o",
"qr888888888899888899998888888899999989% OO+++OOO+++O++++OOOOOO#o",
"qr8888999998888888889999888988888888994OOOOO+++OOO+++OOO++OOOO#O",
"qr8888999998888888999999888988888888995OOO++++++OO++OOOO++OOOO#O",
"qr8899999999889999999998889999998899995% O++OOOOOO++OOOO++OOOO#O",
"qr99999999998899999999988899999988999998*O++OOOOOO+OOOOO+++OOO#O",
"qr999999998899998888998888888889999999999*OOOOOO++++OOOO++++OO#O",
"qr9999999988999988889999888888899999999993OOOOOO+O++OOOO++O+OO#O",
"qr9999888888899988999999998888898899999898#OOOOOOOOOOOOOOOOOOO#o",
"qr9988888888899988999999999988898899999898%O+OOOOOOOOOOOOOOOOO#o",
"qr9999888899888899998999998888998899998895+O++++OOOOOOOOOOOOOO#<",
"qr9999888899888899998999998888998899998893OO++O+O+OOOOOOOO++OO39",
"qr8899988899998899888899998899998899988893OOOOOO+++OOOOOO+++OOq9",
"qr889998889999998888889999889999889998880<OOOOOO+++OOO++OO++O%q9",
"qr889999889998889999889988889999888899994+OOOOOOOOOOOO++OOOO*8r9",
"qr88999988999888999988998888999998889999; OO%%OO OOOOO++OOO%99r9",
"qr88999999999888999888888888998899899990:*66892;;# OOOOOOO 309r9",
"qr88998899999888999888889999998899888998<9999999e6# OO**O #999w8",
"qr9988889988999988889988999988889999888889999999996#O3993;4988w8",
"qr998888998899998888998899998888999988889998999999964998999988w8",
"qr998899998888998899998888999999889888999988889898999898999998r9",
"qr999999998888999999998888999999888888999988888899999898999999r9",
"qr999999999888999988889999988899889998889998889999888899999888r9",
"qr999998999888999988889999988899889999889998889999888899998888r9",
"qr898898999988899988999999998889899988889999888999889999999988w9",
"qr888888999988899988999999998889999998889999888999889999999988r9",
"qr888899888899989999988888889998998899998888999899999888888999r9",
"qr888899888899989999988888889998988899998888999899999888888899r8",
"qr889999889999888899988888999988998888998899998888999888889999w8",
"qr999999889999888899988888999988998889998899998888999888888999w8",
"qr999999888888888888888888888888999999998888888888888888888888w8",
"qr999999888899888888998888999988998999998888998888889988889989w8",
"qr999998998899989999998999999999888899989988999899999989999999r9",
"qr999998998899999999999999999999888899989988999999999999999999r9",
"qr999988998889999988889999888899889999889988899999888899998888r9",
"qr999988998899999988999999889899989999889988999999889999998898r9",
"8trrrrrrrrrrrrrrrrrrrrrrrrrrrrrrrrrrrrrrrrrrrrrrrrrrrrrrrrrrrrt9",
"qwqqqqqqqqqqqqqqqqqqqqqqqqqqqqqqqqqqqqqqqqqqqqqqqqqqqqqqqqqqqqwq"
};
