/* XPM */
static char *de7ba5d181b8412d85a5cf89c2027467eEmZPmrPyUFpoX0p[] = {
/* columns rows colors chars-per-pixel */
"64 64 105 2 ",
"   c #030302",
".  c #0A0304",
"X  c #0A0907",
"o  c #04040B",
"O  c #0D030B",
"+  c #0C0B0B",
"@  c #120505",
"#  c #1A060C",
"$  c #160A0B",
"%  c #1B0B09",
"&  c #16100C",
"*  c #0F1010",
"=  c #151515",
"-  c #1D1716",
";  c #1D1917",
":  c #1B1A1A",
">  c #210A08",
",  c #241411",
"<  c #2B1211",
"1  c #231F1C",
"2  c #252525",
"3  c #2D2525",
"4  c #2C2528",
"5  c gray16",
"6  c #332624",
"7  c #382724",
"8  c #352927",
"9  c #342D2C",
"0  c #3C2D2C",
"q  c #32312B",
"w  c #3E312E",
"e  c #323232",
"r  c #3C3534",
"t  c #3F3936",
"y  c #3D3A39",
"u  c #433635",
"i  c #433935",
"p  c #424242",
"a  c #4B4B4B",
"s  c #584D4D",
"d  c #5D514F",
"f  c #5A5555",
"g  c #585858",
"h  c #A5A5A5",
"j  c #AFAFAF",
"k  c #B4B4B4",
"l  c #BCBCBC",
"z  c #C1BFBF",
"x  c #C3C3C3",
"c  c #C5C5C5",
"v  c #C7C6C6",
"b  c gray78",
"n  c #C8C7C7",
"m  c #C8C8C8",
"M  c gray79",
"N  c #CACACA",
"B  c #CBCACA",
"V  c gray80",
"C  c #CDCDCD",
"Z  c #CECECE",
"A  c #D2CFCF",
"S  c #D0D0D0",
"D  c gray82",
"F  c #D4D1D0",
"G  c gray83",
"H  c #D5D5D6",
"J  c #D8D5D2",
"K  c #DAD7D6",
"L  c #D8D8D8",
"P  c #DBDADA",
"I  c gray86",
"U  c #DDDDDD",
"Y  c #DEDCDC",
"T  c gray87",
"R  c #DFDFDF",
"E  c #E3DFDE",
"W  c gray88",
"Q  c #E1E1E1",
"!  c gray89",
"~  c #E4E3E3",
"^  c #E5E5E4",
"/  c gray90",
"(  c #E6E6E6",
")  c #E7E7E7",
"_  c #E8E6E6",
"`  c #E8E8E7",
"'  c #E9E8E7",
"]  c gray91",
"[  c #E9E9E9",
"{  c #EAEAEA",
"}  c #EBEBEA",
"|  c #EAEBEB",
" . c #ECECEC",
".. c gray93",
"X. c #EDEEEE",
"o. c #F0EFEF",
"O. c #F0F0EF",
"+. c #EFEFF0",
"@. c #EFF0F0",
"#. c gray95",
"$. c #F3F3F3",
"%. c #F4F4F4",
"&. c #F5F6F6",
"*. c gray97",
"=. c #F9F9F9",
/* pixels */
"/ { / / / / / / / / / / / / / / ) ) ) ) ) ) / ) / / / / / / ) / / / / / / / / / / / ..C       r | / / / / / / / / ) { { 9     . ",
"/ #...................{ ........{ { | | ..| ..{ @.| | @...{ ..@.....{ @.| @.@.......%.G o     u $.......| ............#.9     . ",
"/ ../ / { / { / { / { { { / { / / { / / ) { / { ) ) ) { / { / { / ) { ) | / / { { / @.S X     u ..{ / / { / / / { / { ..9     X ",
"/ ../ / R R Q R R Q Q R Q Q Q Q Q Q Q P Q W Q W Q W W W Q R Q R Q Q W R R W W R Q W / N X     u ..{ / _ Q R Q E R Q Q / 8       ",
"{ { { Q x x x x z x z x x x x z x x x x x l x x x x l x x x x x x z x z x x x x x x c j       u ..{ / / N x x x x x c n 3   .   ",
"/ ../ Q x x x x x x x x x x x x x x x x x x x x x x x x x x x x x x x x x x x x x x N j       u ../ ` / c x x x x c c c 3       ",
"/ ..{ Q l x x x x x x x x x x x x x x x x x x x x x x x x x x x x x x x x x x x x x m j X     u ../ { / c x x x x x c c 3   X   ",
"/ ../ Q x x x x x x x x x x x x x x x x x x x x x x x x x x x x x x x x x x x x x x N j o     u ..{ / / n x x x x x c c 3   X   ",
") | { R z x x x x x x x x x x x x x x x x x x x x x x x x x x x x x x x x x x x x x m j o     u @.~ ` / c x x x x x x n 3     . ",
") ../ Q x x x x x x x x x x x x x x x x x x x x x x x x x x x x x x x x x x x x x x m j       u ..{ / / m z x x x x n c 3     . ",
"/ ..{ R x x x x x x x x x x x x x x x x x x x x x x x x x x x x x z x x x x x x x x m j o     u ..{ ` / c c x x x x x n 3   X   ",
"/ | / R x x x x x x x x x x x x x x x x x x x x x x x x x x x x x x x x x x x x x x N j       u ../ ` / m z x x x x x c 3       ",
") @.{ R x x x x x x x x x x x x x x x x x x l x x x x x x x x x x x x x x x x x x x N j o     u ../ { / N x x x x x c c 3   .   ",
"/ ..) W x x x x x x x x z x x x x x x x x x x x x x x x x x x x x x x x x x x x x x N j       r @.) / / c x x x x x c m 3   X   ",
"/ | / Q x x x x x x x x x x x x x x x x x x x x x x x x x x x x x x x x x x x x x x N j o     t ..{ { / N x x x x c c n 6     X ",
"/ { { Q z x x x x x x x x x x x x x x x x x x x x x x x x x x x x x x x x x x x x x m j X     r =.@.@.| C c C N N C C C 7     . ",
"/ @.| Q x x x x x x x x x x x x x x x x x x x x x x x x x x x x x x x x x x x x x x m j       & i u i u 0 0 0 9 0 0 0 0 $ X     ",
"/ ../ W x x x x x x x x x x x x x x x x x x x x x x x x x x x x x x x x x x x x x x N j o                               o o X X ",
"/ @./ W x x x x x x x x x z x x x x x x x x x x x x x x x x x x x x x x x x x x x x N j X       o             o         o o .   ",
"/ ..) Q l x x x x x x x x x x x x x x x x x x x x x x x x x x x x x x x x x x x x x m j       . $ $ $ # % % > > # % % $ @ X X   ",
"/ ../ Q c x x x x x x x x x x x x x x x x x x x x x x x x x x x x x x x x x x x x x m j o     w K S D D A A S F F D F J 8   .   ",
"/ { { R z x x x x x x x x x x x x x x x x x x x x x x x x x x x x x x x x x x x x x N j       u %.....@...............#.9     . ",
"/ ..{ Q x x x x x x x x x x x x x x x x x x x x x x x x x x x x x x x x x x x x x x m j o     u #./ / / { / { / / { `  .5     X ",
"/ ..{ Q z x x x x x x x x x x x x x x x x x x x x x x x x x x x x x x x x x x x x x N j       u ..) ) / Q Q Q Q Q Q Q ~ 9   X   ",
"/ @./ W x x x x x x x x x x x x x x x x x x x x x x x x x x x x x x x x x x x x x x m j o     r ..) / / n x x x x x c n 3   .   ",
"/ ..{ Q x x x x x x x x x x x x x x x x x x x x x x x x x x x x x x x x x x x x x x N j X     u @.) ) / n x z x x x c c 3   .   ",
"/ | / W x x x x x x x x x x x x x x x x x x x x x x x x x x x x x x x x x x x x x x m j       u ..{ ` ` c z x x x x c c 3   X   ",
"/ { { Q l x x x x x x x x x x x x x x x x x x x x x x x x x x x x x x x x x x x x x N j o     u @./ ` ~ b c x x x x c n 3   X   ",
"/ @.| Q x x x x x x x x x x x x x x x x x x x x x x x x x x x x x x x x x x x x x x m j       r ../ ) / n z x x x x x n 3   .   ",
"/ ../ Q x x x x x x x x x x x x x x z x x x x x x x x x x x x x x x x x x x x x x x m j o     e ..{ / / c x x x x x n c 3   .   ",
"/ { { W x x x x x x z x x x x x x x x x x x x x x x x x x x x x x x x x x x x x m m C k       e @.` { / n x x x x x c n 3     X ",
"/ @./ W x x x x x x x x x x x x x x x x x x x x x x x x x x x x x x x x x x x x l k l h = + + p { / / / c x x x x x c c 3   X   ",
"/ | { Q x x x x x x x x x x x x x x x x x x x x x x x x x x x x x x x x x x x x 2 X * 1 C I L S x x c c x x x x x x c c 4     . ",
"/ { { Q x x x x x x x x x x x x x x x x x x x x x x x x x x x x x x x x z x m z =     = / @.+.Q x x x x x x x x x x c m 4   X   ",
"/ ..{ Q z x x x x x x x x x x x x x x x x z x x x x x x x x x x x x x x x x x x :     = I | ) R x x x x x x x x x x x c 3   .   ",
"#.=.&.{ x x x x x x x x x x x x x x x x x x x x x x x x x x x x x x x x x x c x :     = R | { R z x x x x x x x x x c c 3   X   ",
"p y p g c x x x x x x x x x x x x x x x x x x x x x x x x x x x x x x x x x c x :     = R | { R x x x x x x x x x x c n 3     . ",
"      = c c x x x x x x x x x x x x x x x x x x x x x x x x x x x x x x x x c x :     = R { / I x x x x x x x x x c c c 3   X   ",
"      2 N m c x x x x x x x x x x x x x x x x x x x x x x x x x x x x x x x N x =     = R { ) R x x x x x x x x x x c n 3   .   ",
"      2 x x z x x x x x x x x x x x x x x x x x x x x x x x x x x x x x x x x x :     = R { { R z x x x x x x x x x x n 3   X   ",
"        : : : f C c x x x x x x x x x x x x x x x x x x x x x x x x x N a : : : j C m c c N N c x x x x x x x x x x x c 3   .   ",
"              y S x x x x x x x x x x x x x x x x x x x x x x x x x c N 5       C =.#...x z x x x x x x x x x x x x n n 3   X   ",
"              r D N N N N N N m x x x x x x x x x x x x x x x x N c C G e       c ..` Q x x x x x x x x x x x x x x x c 3   .   ",
"= - - - - - ; f x j j j j j j k x x x x x x x z x x x x x x x x j j j l p = = = n { / R x x x x x x x x x x x x x x c n 3     X ",
"R ~ R E Y R R E 8   o   o     e N m c x x x x x x x x x x x m l = o   o h | W R N x x x x x x x x x x x x x x x x x x c 3   .   ",
"{ +.{ { { { .._ 1             5 m z x z x x x x x x x x x x c k o       h =.{ { N z x x x x x x x x x x x x x x x x n n 3   X   ",
"/ ../ / { _ .._ -               = = = g D c x x c c x n x c N k +       h *.{ ` c z x x x x x x x x x x x x x x x x c n 3   .   ",
"/ } / / R R R Y s e r u r r t e X     a K N B N N N N N N N C l X       h ..W R N x x x x x x x x x x x x x x x x x x n 3   X   ",
"/ ..] R z x z x { @.+.......#.%.e     X r 9 9 9 9 9 9 9 9 9 5 t j k j k l x z x x x x x x x x x x x x x x x x x x x c N 3   .   ",
"/ ..] Q z x x x W { / / { / | +.a : : ;                       o W =.&.&.S x x x z x x x x x x x x x x x x x x x x x x c 3       ",
"/  .] R z x z x Q { / { { / / { Q Q / K *                     = H { / { V x x x c c z c x x x x x x x z x x x x x x x n 3   X X ",
"/ ..] Q x x x x Q / / / / / / / { { @.Q 6 X $ $ $ $ $ $ o     & P | / / V x x x c z x x x x x x x x x x x x z x x x x N 3     . ",
"/ ..) W x x x x x N n N c c c n Q { { ~ J S D C S A F H 9     , L | ) ) C x z x x x x x x x x x x x x x x x x x x x c n 3     . ",
"/ ..) Q x x x x x x z z x x x z G R R R ............+.o.0     , P { / ) N x x x x x x x x x x x x x x x x x x x x x c c 3       ",
"/ ..{ E x x x x x x x x x x x x x z z x Q { { ~ / / { ..0   . , P ../ | S x x x x x x x x x x x x x x x x x x x x x c n 3   X . ",
"/ ../ Q x x x x x x x x x x x x x x x c W Q Q Q Q Q ~ / 0   . < L | / | C z x x x x x x x x x x x x x x x x x x x x c c 3   X   ",
"/ ..{ Q x x x x x x x x x x x x x x x x x x x x x x c n 6     , L | ` ` C z x x x x x x x x x x x x x x x x x x x x c n 3     . ",
"/ { { Q x x x x x x x x x x x x x c x x x z x x x x c c 6     , P | ~ ` C c x x x c x x x x x x x x x x x x x x x x n c 3     . ",
"{ ..{ Q x c c x x x m c x x x x x c x x n x m x x c n m 6     - P  .` } C c x c c c c x c c c c x n x c c c c c c c n n 6   X   ",
"{ @.{ ~ c m c x m c m x N m c N n c m x m x m c n n n m 3     , Y @.{  .S c c m c c n c n c m c n c n n c n c c n c n N 6       ",
"9 9 9 8 3 3 3 3 3 3 3 3 5 3 3 3 3 3 3 3 3 3 3 3 3 3 3 6 $   X # 0 q q q 5 3 3 3 3 3 3 3 3 3 3 3 3 3 3 2 3 3 3 3 3 3 7 6 X   X   ",
"                                                          . O O                                                           X X   ",
"  X   . X     X     X     X   . X X   X .   X   X     . X X X   .   X     X   . X     X   . X X X   .   X   X         X   X   X ",
"    .     X     X           .       X               .           .           .     X                 .       . . X   X   X       "
};
