/* XPM */
static char *_2c9cc2e5cb84b61e61d31484d761b0aHiuriUOqa4rp1BvS[] = {
/* columns rows colors chars-per-pixel */
"64 64 14 1 ",
"  c None",
". c #090810",
"X c #071925",
"o c #131122",
"O c #212335",
"+ c #790B0F",
"@ c #670E10",
"# c #413D5B",
"$ c #9E0B0F",
"% c #C00D12",
"& c #FB0000",
"* c #B56A60",
"= c #E5AF8D",
"- c #FFEFDD",
/* pixels */
"                                                                ",
"                                                                ",
"                                                                ",
"                                                                ",
"                                                 +              ",
"                                                                ",
"                                                                ",
"                                                                ",
"                                                                ",
"                                                                ",
"                                                                ",
"                                                                ",
"                                                   +            ",
"                                                  +++           ",
"                                oooo          ++ ++%+   +       ",
"                               oo##O.           ++%%++          ",
"                              oo#XXXO.         ++%%%++          ",
"                              o#XXXXoO.        +%%%%%++         ",
"                             oo#X&Xo&O.       +%%@@$$%++        ",
"                             oo#XXXooO.       +%@@@$$$%+        ",
"                        #    oo#XXoooO.       +%@@$.$$%+        ",
"                        ##  .oo#OoooOo# .     +%@$$..@%+        ",
"                        O#OOO.oo##OOo.o.o     +%%@$$@@%+        ",
"                        #O##oO#.oooo.#.oo.    ++%.@$$%%+        ",
"                *=--    o#oO#OOo#.o.#o.o.o     ++..@@%++        ",
"               *=--=*  #OoO##o$OOoO#oo.oo..     +..%%++         ",
"               *=.**.  OOOo#ooo$$O#oo@..ooo      ..++           ",
"               ***==*  oOoOoo$OOo$O#@oo...o      .              ",
"                *==*    oOoOOo$OOO$@oo@ o.o.    ..              ",
"                 *=*    oooo Oo$$OO#o@   o.##   ..              ",
"                       o#o#   OOo$OO@o   .OOO#  ..              ",
"                      oOo#O   oOOo$@o     OOO#  ..              ",
"                      Oo#OO    oOOooo      OOOO .               ",
"                     #OoOO     $o#oo@.     #OOO .               ",
"                     O##O     oO$$@@...    ##O#..               ",
"                  o O#oO     oOOoo.....     OOOo.               ",
"                  Oo#oO     ooOoO#.ooo.      ##Oo               ",
"                  OOoO     oOOoOo.ooOo..      ooO               ",
"                   OO      oOooO#.oOooo.       .                ",
"                          oooOoO.oOOooo..      .                ",
"                         oOooOoo.oooooo..      .                ",
"                         ooOoOo#o.ooOooo.     .                 ",
"                         ooOoo#oO.oOOOoo.     .                 ",
"                         oOoo#oO .oO OOo.     .                 ",
"                          oo#o#O .o OOOO.     .                 ",
"                           o#oOo  .OO.OO.     .                 ",
"                          ooOOo    O...O     .                  ",
"                          oOOOo   ..oo.O     .                  ",
"                         oOOOoo   .oo...     .                  ",
"                         oOOoo    oo....     .                  ",
"                          oOoo     ....      .                  ",
"                          oOo     ....      .                   ",
"                          oOo     ...       .                   ",
"                          OOo     ...       .                   ",
"                          Ooo      ..                           ",
"                         oOoo      .oo                          ",
"                         Ooo        oo                          ",
"                         Ooo         o                          ",
"                         Ooo                                    ",
"                          o                                     ",
"                                                                ",
"                                                                ",
"                                                                ",
"                                                                "
};
