/* XPM */
static char *edfb64e727a8477be91f889636fa2779ZZy5Pr6ImZsvS05n[] = {
/* columns rows colors chars-per-pixel */
"64 64 176 2 ",
"   c None",
".  c black",
"X  c #000105",
"o  c #0F0701",
"O  c #090D05",
"+  c #00000B",
"@  c #120400",
"#  c #120B0F",
"$  c #010719",
"%  c #02001F",
"&  c #070B1F",
"*  c #00151A",
"=  c #171317",
"-  c #2B180B",
";  c #221612",
":  c #163A10",
">  c #3A2805",
",  c #2B231F",
"<  c #041F29",
"1  c #191625",
"2  c #080630",
"3  c #101A3A",
"4  c #371820",
"5  c #1F2123",
"6  c #0B2D36",
"7  c #29393C",
"8  c #443609",
"9  c #573A00",
"0  c #5C3F00",
"q  c #452A2E",
"w  c #523425",
"e  c #473D31",
"r  c #57343A",
"t  c #134A12",
"y  c #1E432F",
"u  c #1D582E",
"i  c #2F4727",
"p  c #244C39",
"a  c #304F38",
"s  c #57450B",
"d  c #6A500B",
"f  c #4A4334",
"g  c #58403D",
"h  c #0B0847",
"j  c #103543",
"k  c #1F3C46",
"l  c #092F5E",
"z  c #162052",
"x  c #1C2E5A",
"c  c #2F3C48",
"v  c #172C6A",
"b  c #193E7A",
"n  c #263E7B",
"m  c #1E414D",
"M  c #1F4A59",
"N  c #1C485A",
"B  c #384C46",
"V  c #205945",
"C  c #2C5E4C",
"Z  c #294853",
"A  c #2C5C52",
"S  c #286A4A",
"D  c #2F7449",
"F  c #3E7B54",
"G  c #2E5562",
"H  c #2D4E75",
"J  c #424940",
"K  c #424249",
"L  c #4B4F48",
"P  c #4D574F",
"I  c #51574A",
"U  c #565758",
"Y  c #684449",
"T  c #6B6757",
"R  c #76625F",
"E  c #7B665D",
"W  c #60795C",
"Q  c #4F416C",
"!  c #5D5D61",
"~  c #5D586B",
"^  c #725073",
"/  c #4C6E64",
"(  c #5F6368",
")  c #5E656A",
"_  c #606960",
"`  c #627F64",
"'  c #74756A",
"]  c #627272",
"[  c #8E6034",
"{  c #9C7A51",
"}  c #856A62",
"|  c #82676D",
" . c #807B62",
".. c #158F0E",
"X. c #4D8325",
"o. c #62913A",
"O. c #3D8B56",
"+. c #3D8A59",
"@. c #369357",
"#. c #359C54",
"$. c #3F9D57",
"%. c #3F9558",
"&. c #399971",
"*. c #429A54",
"=. c #40A553",
"-. c #49A95A",
";. c #4C9F64",
":. c #589366",
">. c #48A163",
",. c #48A660",
"<. c #49A462",
"1. c #4BA762",
"2. c #4AA567",
"3. c #49AB63",
"4. c #48AC61",
"5. c #4DAF65",
"6. c #4EA66C",
"7. c #4CB161",
"8. c #4DB062",
"9. c #4DB066",
"0. c #87827C",
"q. c #98887E",
"w. c #397E97",
"e. c #7D7B88",
"r. c #6D7D93",
"t. c #3B8189",
"y. c #58858A",
"u. c #4B9988",
"i. c #4B9A8A",
"p. c #5BA49D",
"a. c #5EA898",
"s. c #5296A2",
"d. c #599EA1",
"f. c #5E99B1",
"g. c #6BA5B9",
"h. c #57A8C4",
"j. c #A68382",
"k. c #B48E84",
"l. c #BD9C87",
"z. c #BBA88C",
"x. c #B8B398",
"c. c #AAB9B4",
"v. c #C89787",
"b. c #CEAEB0",
"n. c #D5BBB4",
"m. c #EEAFAC",
"M. c #E2B8A9",
"N. c #F1B1AC",
"B. c #C4C0BC",
"V. c #F0C2AE",
"C. c #F6C5B6",
"Z. c #F4CBBA",
"A. c #F9D6BB",
"S. c #FAD7BD",
"D. c #C9BFC0",
"F. c #E9BAC5",
"G. c #9DC2CE",
"H. c #91C1D4",
"J. c #B0C5C0",
"K. c #BAC2C4",
"L. c #B3CDCC",
"P. c #ACD4DE",
"I. c #B5DBF0",
"U. c #BBEBF9",
"Y. c #E4C9C8",
"T. c #EACDCE",
"R. c #FBD7C0",
"E. c #FFD8C9",
"W. c #FFE1C7",
"Q. c #FFE7CB",
"!. c #FFE5CE",
"~. c #FFEFD0",
"^. c #F8EAD5",
"/. c #FFF6D3",
"(. c #DBF7FF",
"). c #F0FCFE",
/* pixels */
"                                                                                                                                ",
"                                                                                                                                ",
"                                                                                                                                ",
"                                                                                                                                ",
"                                                                                                                                ",
"                                                                                                                                ",
"                                                                                                                                ",
"                                                                                                                                ",
"                                                                                                                                ",
"                                                                                                                                ",
"                                                                                                                                ",
"                                                                                                                                ",
"                                                                                                                                ",
"                                                                                                                                ",
"                                                                                                                                ",
"                                                                                                                                ",
"                                                                                                                                ",
"                                                                                                                                ",
"                                                                                                                                ",
"                                                                                                                                ",
"                                                                                                                                ",
"                                                                                                                                ",
"                                                                                                                                ",
"                                                                                                                                ",
"                                                                                                                                ",
"                                                                                                                                ",
"                                                                                                                                ",
"                                                                                                                                ",
"                                                                                                                                ",
"                                                                                                                                ",
"                                                                                                                                ",
"                                                                                                                                ",
"                                                                                                                                ",
"                                                                                                                                ",
"                                                                                                                                ",
"                                                                                                                                ",
"                                                                                                                                ",
"                                                                                                                                ",
"                                                                                                                                ",
"                                                                                                                                ",
"                                                                                                                                ",
"                                                                                                                                ",
"                                                                                                                                ",
"                                                                                                                                ",
"                                                      > d o                                                                     ",
"                                                      8 s                                                                       ",
"                                                        +                                                                       ",
"                                                        Z g.* j m                                                               ",
"                                                    @ 7 G N e.f.h.w.c                                                           ",
"                                                    9 / N K N.B.L.J.n.5                                                         ",
"                                                    0 B U v.c.y.0.V.] <                                                         ",
"                                                    : u T D.K.b.( l.!                                                           ",
"                                                    t ..i ~ H.F.T.^.Y.                                                          ",
"                                                    O  .L J r.U.(.).G.=                                                         ",
"                                                    k.E.Z.` D t.I.P.&.W r                                                       ",
"                                                  g R.S.W.q.#.$.d.a.=.;.R                                                       ",
"                                                  } ~.A.N._ S *.i.i.-.@.' 4                                                     ",
"                                                  E Q.C.j.V O.>.s.p.2.-.F #                                                     ",
"                                                  , M.!.x.p %.5.2.6.<.3.:.Y                                                     ",
"                                                    e z./.| 6 +.5.7.7.3.a q                                                     ",
"                                                    X.o.^ Q v x y C A k X                                                       ",
"                                                    I P l b n 3 . % h 2                                                         ",
"                                                        f ) H     & z $                                                         ",
"                                                        { [ ;     1 w -                                                         "
};
